<svg width="14" height="17" viewBox="0 0 14 17" fill="none" xmlns="http://www.w3.org/2000/svg">
<path d="M11.6797 3.32031H10C10 2.69531 9.84375 2.13542 9.53125 1.64062C9.24479 1.14583 8.85417 0.755208 8.35938 0.46875C7.86458 0.15625 7.30469 0 6.67969 0C6.05469 0 5.49479 0.15625 5 0.46875C4.50521 0.755208 4.10156 1.14583 3.78906 1.64062C3.5026 2.13542 3.35938 2.69531 3.35938 3.32031H1.67969C1.21094 3.32031 0.807292 3.48958 0.46875 3.82812C0.15625 4.14062 0 4.53125 0 5V15C0 15.4427 0.15625 15.8333 0.46875 16.1719C0.807292 16.4844 1.21094 16.6406 1.67969 16.6406H11.6797C12.1484 16.6406 12.5391 16.4844 12.8516 16.1719C13.1901 15.8333 13.3594 15.4427 13.3594 15V5C13.3594 4.53125 13.1901 4.14062 12.8516 3.82812C12.5391 3.48958 12.1484 3.32031 11.6797 3.32031ZM5 6.64062C5 6.875 4.92188 7.08333 4.76562 7.26562C4.60938 7.42188 4.41406 7.5 4.17969 7.5C3.94531 7.5 3.75 7.42188 3.59375 7.26562C3.4375 7.08333 3.35938 6.875 3.35938 6.64062V5H5V6.64062ZM6.67969 1.64062C7.14844 1.64062 7.53906 1.8099 7.85156 2.14844C8.1901 2.46094 8.35938 2.85156 8.35938 3.32031H5C5 2.85156 5.15625 2.46094 5.46875 2.14844C5.80729 1.8099 6.21094 1.64062 6.67969 1.64062ZM10 6.64062C10 6.875 9.92188 7.08333 9.76562 7.26562C9.60938 7.42188 9.41406 7.5 9.17969 7.5C8.94531 7.5 8.75 7.42188 8.59375 7.26562C8.4375 7.08333 8.35938 6.875 8.35938 6.64062V5H10V6.64062Z" fill="#2A2C1F"/>
</svg>
